# Blender v2.79 (sub 0) OBJ File: 'akm_bolt.blend'
# www.blender.org
o Box023
v 0.043500 0.144236 -0.385818
v 0.043500 0.131127 -0.385818
v 0.028933 0.131127 -0.385815
v 0.028933 0.144236 -0.385815
v 0.043449 0.131127 -0.380243
v 0.043449 0.144236 -0.380243
v 0.028933 0.144236 -0.380239
v 0.028933 0.131127 -0.380239
v 0.056539 0.149893 -0.381456
v 0.061450 0.149893 -0.382627
v 0.060102 0.149893 -0.388017
v 0.055573 0.149893 -0.386937
v 0.060652 0.131127 -0.388174
v 0.055012 0.131127 -0.386829
v 0.062047 0.131127 -0.382797
v 0.055931 0.131127 -0.381339
v 0.043449 0.147124 -0.380243
v 0.043500 0.147124 -0.385818
v 0.073767 0.134333 -0.387471
v 0.071462 0.134333 -0.392484
v 0.071462 0.147124 -0.392484
v 0.073767 0.147124 -0.387471
v 0.046538 0.149893 -0.380285
v 0.046349 0.149893 -0.385857
v 0.068872 0.149893 -0.391227
v 0.070959 0.149893 -0.386108
v 0.064544 0.149893 -0.389450
v 0.066266 0.149893 -0.384180
v 0.051559 0.149893 -0.380674
v 0.050980 0.149893 -0.386216
v 0.068679 0.131127 -0.391216
v 0.066151 0.131127 -0.390065
v 0.070984 0.131127 -0.386203
v 0.068009 0.131127 -0.384847
v 0.049278 0.131127 -0.386041
v 0.049714 0.131127 -0.380485
vt 0.462000 0.790300
vt 0.462000 0.777000
vt 0.476600 0.777000
vt 0.476600 0.790300
vt 0.495100 0.777300
vt 0.495100 0.790600
vt 0.480600 0.790600
vt 0.480600 0.777300
vt 0.499800 0.774900
vt 0.493900 0.774900
vt 0.493900 0.769600
vt 0.499800 0.769600
vt 0.444500 0.777000
vt 0.450400 0.777000
vt 0.449800 0.796000
vt 0.445100 0.796000
vt 0.446400 0.769600
vt 0.452300 0.769600
vt 0.452300 0.774900
vt 0.446400 0.774900
vt 0.519400 0.769600
vt 0.519400 0.774900
vt 0.516500 0.774900
vt 0.516500 0.769600
vt 0.466000 0.774900
vt 0.466000 0.769600
vt 0.478100 0.769600
vt 0.478100 0.774900
vt 0.514100 0.777300
vt 0.513500 0.796300
vt 0.508400 0.796300
vt 0.507800 0.777300
vt 0.511800 0.774900
vt 0.511800 0.769600
vt 0.482400 0.769600
vt 0.482400 0.774900
vt 0.488100 0.769600
vt 0.488100 0.774900
vt 0.505800 0.774900
vt 0.505800 0.769600
vt 0.433100 0.780300
vt 0.436000 0.777000
vt 0.435800 0.796000
vt 0.433100 0.793200
vt 0.438700 0.777000
vt 0.440400 0.796000
vt 0.461700 0.769600
vt 0.461700 0.774900
vt 0.458500 0.774900
vt 0.458500 0.769600
vt 0.435400 0.774900
vt 0.435400 0.769600
vt 0.440700 0.769600
vt 0.440700 0.774900
vt 0.498200 0.796300
vt 0.495100 0.793500
vt 0.501400 0.777300
vt 0.503300 0.796300
vt 0.459200 0.796000
vt 0.454500 0.796000
vt 0.456200 0.777000
vt 0.523500 0.796300
vt 0.518500 0.796300
vt 0.520400 0.777300
vt 0.523600 0.777300
vt 0.537600 0.769600
vt 0.537600 0.774900
vt 0.423000 0.774900
vt 0.423000 0.769600
vt 0.526500 0.780500
vt 0.526500 0.793500
vt 0.462000 0.793200
vn -0.0077 0.0000 -1.0000
vn -0.0151 0.0017 -0.9999
vn -0.0002 0.0000 -1.0000
vn 0.0150 -0.0018 0.9999
vn 0.0077 0.0000 1.0000
vn 0.0002 -0.0000 1.0000
vn 0.0000 1.0000 -0.0000
vn -0.2352 -0.0002 -0.9719
vn -0.1528 -0.0002 -0.9883
vn -0.1606 0.0025 -0.9870
vn -0.2273 0.0025 -0.9738
vn 0.0000 -1.0000 0.0000
vn -0.7096 0.7046 -0.0079
vn -0.7046 0.7096 -0.0077
vn -0.8947 0.4465 -0.0099
vn -0.8971 0.4418 0.0003
vn 0.8048 -0.3915 -0.4461
vn 0.7940 -0.4194 -0.4401
vn 0.7863 0.4378 -0.4359
vn 0.7973 0.4223 -0.4313
vn 0.2353 0.0002 0.9719
vn 0.2274 -0.0026 0.9738
vn 0.1606 -0.0026 0.9870
vn 0.1527 0.0002 0.9883
vn -0.3221 0.9467 0.0038
vn -0.3325 0.9430 0.0136
vn 0.2755 0.9503 -0.1453
vn 0.3042 0.9408 -0.1495
vn -0.3583 0.0035 -0.9336
vn -0.3509 -0.0014 -0.9364
vn -0.3396 0.0025 -0.9406
vn -0.3734 -0.0000 -0.9277
vn -0.3155 -0.0033 -0.9489
vn -0.2900 0.0037 -0.9570
vn 0.2890 -0.9438 -0.1602
vn 0.3395 -0.9216 -0.1882
vn 0.0436 0.0007 0.9990
vn 0.0115 0.0000 0.9999
vn 0.0744 -0.0014 0.9972
vn 0.0991 -0.0017 0.9951
vn -0.0441 -0.0007 -0.9990
vn -0.0989 0.0015 -0.9951
vn -0.0743 0.0013 -0.9972
vn 0.3423 0.0008 0.9396
vn 0.2882 -0.0017 0.9576
vn 0.3125 -0.0014 0.9499
vn 0.3547 -0.0042 0.9350
vn 0.3586 -0.0037 0.9335
vn 0.3734 -0.0000 0.9277
vn -0.0116 0.0000 -0.9999
s 1
f 1/1/1 2/2/2 3/3/3
f 3/3/3 4/4/3 1/1/1
f 5/5/4 6/6/5 7/7/6
f 7/7/6 8/8/6 5/5/4
f 9/9/7 10/10/7 11/11/7
f 11/11/7 12/12/7 9/9/7
f 13/13/8 14/14/9 12/15/10
f 12/15/10 11/16/11 13/13/8
f 14/17/12 13/18/12 15/19/12
f 15/19/12 16/20/12 14/17/12
f 1/21/13 6/22/14 17/23/15
f 17/23/15 18/24/16 1/21/13
f 19/25/17 20/26/18 21/27/19
f 21/27/19 22/28/20 19/25/17
f 15/29/21 10/30/22 9/31/23
f 9/31/23 16/32/24 15/29/21
f 18/24/16 17/23/15 23/33/25
f 23/33/25 24/34/26 18/24/16
f 22/28/20 21/27/19 25/35/27
f 25/35/27 26/36/28 22/28/20
f 26/36/28 25/35/27 27/37/7
f 27/37/7 28/38/7 26/36/28
f 28/38/7 27/37/7 11/11/7
f 11/11/7 10/10/7 28/38/7
f 24/34/26 23/33/25 29/39/7
f 29/39/7 30/40/7 24/34/26
f 30/40/7 29/39/7 9/9/7
f 9/9/7 12/12/7 30/40/7
f 20/41/29 31/42/30 25/43/31
f 25/43/31 21/44/32 20/41/29
f 32/45/33 13/13/8 11/16/11
f 11/16/11 27/46/34 32/45/33
f 31/47/35 33/48/36 34/49/12
f 34/49/12 32/50/12 31/47/35
f 32/50/12 34/49/12 15/19/12
f 15/19/12 13/18/12 32/50/12
f 5/51/12 2/52/12 35/53/12
f 35/53/12 36/54/12 5/51/12
f 36/54/12 35/53/12 14/17/12
f 14/17/12 16/20/12 36/54/12
f 23/55/37 17/56/38 6/6/5
f 6/6/5 5/5/4 23/55/37
f 36/57/39 16/32/24 9/31/23
f 9/31/23 29/58/40 36/57/39
f 24/59/41 30/60/42 35/61/43
f 35/61/43 2/2/2 24/59/41
f 12/15/10 14/14/9 35/61/43
f 35/61/43 30/60/42 12/15/10
f 26/62/44 28/63/45 34/64/46
f 34/64/46 33/65/47 26/62/44
f 10/30/22 15/29/21 34/64/46
f 34/64/46 28/63/45 10/30/22
f 33/48/36 31/47/35 20/26/18
f 20/26/18 19/25/17 33/48/36
f 6/22/14 1/21/13 4/66/7
f 4/66/7 7/67/7 6/22/14
f 2/52/12 5/51/12 8/68/12
f 8/68/12 3/69/12 2/52/12
f 27/46/34 25/43/31 31/42/30
f 31/42/30 32/45/33 27/46/34
f 26/62/44 33/65/47 19/70/48
f 19/70/48 22/71/49 26/62/44
f 1/1/1 18/72/50 24/59/41
f 24/59/41 2/2/2 1/1/1
f 23/55/37 5/5/4 36/57/39
f 36/57/39 29/58/40 23/55/37
o Object073
v 0.028487 0.153477 -0.386364
v 0.023249 0.158135 -0.386364
v 0.023249 0.158135 -0.201932
v 0.028487 0.153477 -0.201932
v 0.029570 0.149075 -0.386364
v 0.029570 0.149075 -0.201932
v 0.016696 0.161819 -0.386364
v 0.016696 0.161819 -0.201932
v 0.029570 0.130179 -0.201932
v 0.029570 0.130179 -0.386364
v 0.013339 0.179313 -0.386364
v 0.013339 0.179313 -0.201932
v 0.014209 0.166136 -0.201932
v 0.014209 0.166136 -0.386364
vt 0.994600 0.801000
vt 0.994600 0.809300
vt 0.800400 0.809300
vt 0.800400 0.801000
vt 0.994600 0.796200
vt 0.800400 0.796200
vt 0.994600 0.818400
vt 0.800400 0.818400
vt 0.800400 0.776300
vt 0.994600 0.776300
vt 0.994600 0.837900
vt 0.800400 0.837900
vt 0.800400 0.824000
vt 0.994600 0.824000
vn 0.8186 0.5744 -0.0000
vn 0.5106 0.8598 -0.0000
vn 0.9896 0.1437 -0.0000
vn 0.6443 0.7648 -0.0000
vn 1.0000 -0.0000 -0.0000
vn 0.9968 0.0794 0.0000
vn 0.9417 0.3365 -0.0000
s 1
f 37/73/51 38/74/52 39/75/52
f 39/75/52 40/76/51 37/73/51
f 41/77/53 37/73/51 40/76/51
f 40/76/51 42/78/53 41/77/53
f 38/74/52 43/79/54 44/80/54
f 44/80/54 39/75/52 38/74/52
f 41/77/53 42/78/53 45/81/55
f 45/81/55 46/82/55 41/77/53
f 47/83/56 48/84/56 49/85/57
f 49/85/57 50/86/57 47/83/56
f 49/85/57 44/80/54 43/79/54
f 43/79/54 50/86/57 49/85/57
