# Blender v2.79 (sub 0) OBJ File: 'akm_body.blend'
# www.blender.org
o TextureAtlas_mergedObject
v 0.285390 0.142770 -1.223890
v -0.285390 0.142770 -1.794671
v -0.285390 0.142770 -1.223890
v 0.000000 0.428161 -1.794671
v 0.000000 -0.142620 -1.223890
v 0.000000 0.428161 -1.223890
v -0.285390 0.428161 -1.210904
v 0.285390 -0.142620 -1.210904
v 0.285390 0.428161 -1.210904
v 0.285390 0.142770 -1.794671
v 0.000000 -0.142620 -1.794671
v -0.285390 -0.142620 -1.210904
vt 0.000000 0.500000
vt 0.500000 1.000000
vt 0.000000 1.000000
vt 0.500000 0.500000
vt 1.000000 0.000000
vt 0.500000 0.000000
vt 0.500000 0.000000
vt 0.000000 0.500000
vt 0.000000 0.000000
vt 0.500000 0.500000
vt 1.000000 0.500000
vt 0.500000 0.500000
vn 0.0000 1.0000 0.0000
vn -1.0000 0.0000 0.0000
vn 0.0000 -0.0000 1.0000
s 1
f 1/1/1 2/2/1 3/3/1
f 4/4/2 5/5/2 6/6/2
f 7/7/3 8/8/3 9/9/3
f 1/1/1 10/10/1 2/2/1
f 4/4/2 11/11/2 5/5/2
f 7/7/3 12/12/3 8/8/3
