# Blender v2.79 (sub 0) OBJ File: 'picture.blend'
# www.blender.org
o TextureAtlas_mergedObject
v -3.123156 -1.239038 0.013529
v -3.123156 1.239038 0.013529
v -3.123156 -1.239038 -0.013529
v -3.123156 1.239038 -0.013529
v 3.123156 -1.239038 0.013529
v 3.123156 1.239038 0.013529
v 3.123156 -1.239038 -0.013529
v 3.123156 1.239038 -0.013529
v 3.169327 -1.279003 0.039369
v -3.169327 -1.279003 0.039369
v -3.169327 1.278704 0.039370
v 3.169327 1.278704 0.039370
v 3.169327 -1.279003 -0.039371
v -3.169327 -1.279003 -0.039371
v -3.169327 1.278704 -0.039370
v 3.169327 1.278704 -0.039370
v 3.087339 1.224237 0.039370
v -3.093284 1.224237 0.039370
v -3.093284 -1.213573 0.039370
v 3.087339 -1.213573 0.039370
v 3.087339 1.224237 -0.039370
v -3.093284 1.224237 -0.039370
v -3.093284 -1.213573 -0.039371
v 3.087339 -1.213573 -0.039371
v 3.169327 -1.279003 -0.039371
v 3.169327 -1.279003 0.039369
v 3.169327 -1.279003 -0.039371
v 3.087339 1.224237 -0.039370
v 3.087339 1.224237 0.039370
v 3.087339 1.224237 -0.039370
v -3.169327 1.278704 0.039370
v -3.093284 -1.213573 0.039370
v -3.093284 1.224237 0.039370
v -3.169327 1.278704 0.039370
v -3.093284 1.224237 0.039370
v 3.087339 1.224237 0.039370
v 3.169327 1.278704 0.039370
v -3.169327 1.278704 0.039370
v 3.087339 1.224237 0.039370
v -3.093284 -1.213573 0.039370
v -3.169327 1.278704 0.039370
v -3.169327 -1.279003 0.039369
v 3.087339 -1.213573 0.039370
v -3.093284 -1.213573 0.039370
v -3.169327 -1.279003 0.039369
v 3.087339 -1.213573 0.039370
v -3.169327 -1.279003 0.039369
v 3.169327 -1.279003 0.039369
v 3.087339 1.224237 0.039370
v 3.087339 -1.213573 0.039370
v 3.169327 -1.279003 0.039369
v 3.169327 1.278704 0.039370
v 3.087339 1.224237 0.039370
v 3.169327 -1.279003 0.039369
v -3.169327 -1.279003 -0.039371
v -3.169327 1.278704 -0.039370
v -3.093284 -1.213573 -0.039371
v -3.169327 -1.279003 -0.039371
v -3.093284 -1.213573 -0.039371
v 3.087339 -1.213573 -0.039371
v 3.169327 -1.279003 -0.039371
v -3.169327 -1.279003 -0.039371
v 3.087339 -1.213573 -0.039371
v 3.169327 -1.279003 -0.039371
v 3.087339 -1.213573 -0.039371
v 3.087339 1.224237 -0.039370
v 3.169327 1.278704 -0.039370
v 3.169327 -1.279003 -0.039371
v 3.087339 1.224237 -0.039370
v -3.093284 1.224237 -0.039370
v -3.093284 -1.213573 -0.039371
v -3.169327 1.278704 -0.039370
v 3.087339 1.224237 -0.039370
v -3.093284 1.224237 -0.039370
v -3.169327 1.278704 -0.039370
v 3.169327 1.278704 -0.039370
v 3.087339 1.224237 -0.039370
v -3.169327 1.278704 -0.039370
vt 1.000000 0.437500
vt 0.000000 1.000000
vt 0.000000 0.437500
vt 0.000063 0.000063
vt 0.999937 0.396739
vt 0.000063 0.396739
vt 1.000000 0.437500
vt 0.000000 1.000000
vt 0.000000 0.437500
vt 0.999937 0.396739
vt 0.000063 0.000063
vt 0.999937 0.000063
vt 1.000000 0.437500
vt 0.000000 1.000000
vt 0.000000 0.437500
vt 1.000000 0.437500
vt 0.000000 1.000000
vt 0.000000 0.437500
vt 1.000000 1.000000
vt 0.999937 0.000063
vt 1.000000 1.000000
vt 0.000063 0.396739
vt 1.000000 1.000000
vt 1.000000 1.000000
vt 0.000000 0.437500
vt 0.339833 1.000000
vt 0.000000 1.000000
vt 0.339833 0.437500
vt 0.500000 1.000000
vt 0.500000 0.437500
vt 0.839833 1.000000
vt 0.839833 0.437500
vt 1.000000 1.000000
vt 1.000000 0.437500
vt 1.000000 1.000000
vt 0.342301 1.000000
vt 0.000000 1.000000
vt 0.000000 0.437500
vt 0.342301 0.437500
vt 0.500000 1.000000
vt 0.500000 0.437500
vt 0.842301 1.000000
vt 0.842301 0.437500
vt 1.000000 1.000000
vt 1.000000 0.437500
vt 1.000000 1.000000
vt 0.000000 0.437500
vt 0.011997 0.974418
vt 0.011997 0.458795
vt 0.000000 0.437500
vt 0.011997 0.458795
vt 0.987065 0.458795
vt 1.000000 0.437500
vt 0.000000 0.437500
vt 0.987065 0.458795
vt 0.011997 0.974418
vt 0.000000 0.437500
vt 0.000000 1.000000
vt 0.987065 0.974418
vt 0.011997 0.974418
vt 0.000000 1.000000
vt 0.987065 0.974418
vt 0.000000 1.000000
vt 1.000000 1.000000
vt 0.987065 0.458795
vt 0.987065 0.974418
vt 1.000000 1.000000
vt 1.000000 0.437500
vt 0.987065 0.458795
vt 1.000000 1.000000
vt 0.000000 1.000000
vt 0.000000 0.437500
vt 0.011997 0.974418
vt 0.000000 1.000000
vt 0.011997 0.974418
vt 0.987065 0.974418
vt 1.000000 1.000000
vt 0.000000 1.000000
vt 0.987065 0.974418
vt 1.000000 1.000000
vt 0.987065 0.974418
vt 0.987065 0.458795
vt 1.000000 0.437500
vt 1.000000 1.000000
vt 0.987065 0.458795
vt 0.011997 0.458795
vt 0.011997 0.974418
vt 0.000000 0.437500
vt 0.987065 0.458795
vt 0.011997 0.458795
vt 0.000000 0.437500
vt 1.000000 0.437500
vt 0.987065 0.458795
vt 0.000000 0.437500
vn -1.0000 0.0000 0.0000
vn 0.0000 0.0000 -1.0000
vn 1.0000 0.0000 0.0000
vn 0.0000 0.0000 1.0000
vn 0.0000 -1.0000 0.0000
vn 0.0000 1.0000 0.0000
s off
f 2/1/1 3/2/1 1/3/1
f 4/4/2 7/5/2 3/6/2
f 8/7/3 5/8/3 7/9/3
f 6/10/4 1/11/4 5/12/4
f 7/13/5 1/14/5 3/15/5
f 4/16/6 6/17/6 8/18/6
f 2/1/1 4/19/1 3/2/1
f 4/4/2 8/20/2 7/5/2
f 8/7/3 6/21/3 5/8/3
f 6/10/4 2/22/4 1/11/4
f 7/13/5 5/23/5 1/14/5
f 4/16/6 2/24/6 6/17/6
f 9/25/5 14/26/5 13/27/5
f 9/25/5 10/28/5 14/26/5
f 15/29/1 14/26/1 10/28/1
f 10/28/1 11/30/1 15/29/1
f 16/31/6 15/29/6 11/30/6
f 11/30/6 12/32/6 16/31/6
f 25/33/3 16/31/3 12/32/3
f 12/32/3 26/34/3 27/35/3
f 22/36/5 21/37/5 17/38/5
f 17/38/5 18/39/5 22/36/5
f 23/40/3 22/36/3 18/39/3
f 18/39/3 19/41/3 23/40/3
f 24/42/6 23/40/6 19/41/6
f 19/41/6 20/43/6 24/42/6
f 28/44/1 24/42/1 20/43/1
f 20/43/1 29/45/1 30/46/1
f 31/47/4 32/48/4 33/49/4
f 34/50/4 35/51/4 36/52/4
f 37/53/4 38/54/4 39/55/4
f 40/56/4 41/57/4 42/58/4
f 43/59/4 44/60/4 45/61/4
f 46/62/4 47/63/4 48/64/4
f 49/65/4 50/66/4 51/67/4
f 52/68/4 53/69/4 54/70/4
f 55/71/2 56/72/2 57/73/2
f 58/74/2 59/75/2 60/76/2
f 61/77/2 62/78/2 63/79/2
f 64/80/2 65/81/2 66/82/2
f 67/83/2 68/84/2 69/85/2
f 70/86/2 71/87/2 72/88/2
f 73/89/2 74/90/2 75/91/2
f 76/92/2 77/93/2 78/94/2
