# Blender v2.79 (sub 0) OBJ File: ''
# www.blender.org
o TextureAtlas_mergedObject
v 1.056700 0.512746 0.447834
v 1.047865 0.512746 0.087368
v 1.056700 0.522917 0.447834
v 1.047865 0.522917 0.087368
v -1.210283 0.512746 0.153035
v -1.210283 0.522917 0.153035
v -1.203477 0.512746 0.508687
v -1.203477 0.522917 0.508687
v 1.037455 0.533087 0.433091
v 1.029368 0.533087 0.103168
v -1.191122 0.533087 0.167741
v -1.184897 0.533087 0.492925
v 1.048524 0.333002 0.126391
v 1.039689 0.333002 -0.234075
v 1.048524 0.343173 0.126391
v 1.039689 0.343173 -0.234075
v -1.218459 0.333002 -0.168407
v -1.218459 0.343173 -0.168407
v -1.211652 0.333002 0.187244
v -1.211652 0.343173 0.187244
v 1.029279 0.353343 0.111649
v 1.021192 0.353343 -0.218274
v -1.199298 0.353343 -0.153702
v -1.193073 0.353343 0.171483
v 1.065186 0.657052 0.781446
v 1.056350 0.657052 0.420980
v 1.065186 0.667223 0.781446
v 1.056350 0.667223 0.420980
v -1.201798 0.657052 0.486647
v -1.201798 0.667223 0.486647
v -1.194991 0.657052 0.842299
v -1.194991 0.667223 0.842299
v 1.045940 0.677393 0.766704
v 1.037853 0.677393 0.436781
v -1.182636 0.677393 0.501353
v -1.176412 0.677393 0.826537
v 1.040460 0.168436 -0.190577
v 1.031624 0.168436 -0.551043
v 1.040460 0.178607 -0.190577
v 1.031624 0.178607 -0.551043
v -1.226524 0.168436 -0.485376
v -1.226524 0.178607 -0.485376
v -1.219717 0.168436 -0.129724
v -1.219717 0.178607 -0.129724
v 1.021214 0.188777 -0.205321
v 1.013127 0.188777 -0.535244
v -1.207362 0.188777 -0.470671
v -1.201138 0.188777 -0.145487
v -1.178538 0.670499 0.833275
v -1.186694 0.670499 0.512544
v -1.186694 0.506393 0.512544
v 1.047305 0.506393 0.455725
v 1.047305 0.670499 0.455725
v 1.055464 0.670499 0.776454
v -1.178539 0.014076 0.833275
v -1.178538 0.670499 0.833275
v -1.186694 0.506393 0.512544
v 1.055462 0.014076 0.776454
v -1.186694 0.506393 0.512544
v -1.194853 0.506393 0.191815
v -1.194853 0.342288 0.191815
v 1.039148 0.342287 0.134993
v 1.039148 0.506393 0.134993
v 1.047305 0.506393 0.455725
v -1.186694 0.506393 0.512544
v -1.194853 0.342288 0.191815
v 1.055462 0.014076 0.776454
v 1.039148 0.342287 0.134993
v 1.047305 0.506393 0.455725
v -1.194853 0.342288 0.191815
v -1.203010 0.342288 -0.128917
v -1.203010 0.178182 -0.128917
v 1.030991 0.178182 -0.185736
v 1.030991 0.342287 -0.185736
v 1.039148 0.342287 0.134993
v -1.194853 0.342288 0.191815
v -1.203010 0.178182 -0.128917
v 1.055462 0.014076 0.776454
v 1.030991 0.178182 -0.185736
v 1.039148 0.342287 0.134993
v -1.203010 0.178182 -0.128917
v -1.211167 0.178182 -0.449647
v -1.211167 0.014076 -0.449647
v 1.022833 0.014076 -0.506468
v 1.022833 0.178181 -0.506468
v 1.030991 0.178182 -0.185736
v -1.178539 0.014076 0.833275
v -1.211167 0.014076 -0.449647
v 1.055462 0.014076 0.776454
v 1.022833 0.014076 -0.506468
v 1.030991 0.178182 -0.185736
v 1.047305 0.670499 0.455725
v -1.186694 0.670499 0.512544
v 1.055464 0.670499 0.776454
v 1.047305 0.670499 0.455725
v -1.186694 0.670499 0.512544
v -1.186694 0.506393 0.512544
v -1.186694 0.670499 0.512544
v 1.047305 0.670499 0.455725
v -1.186694 0.506393 0.512544
v 1.039148 0.506393 0.134993
v -1.194853 0.506393 0.191815
v 1.039148 0.506393 0.134993
v -1.186694 0.506393 0.512544
v 1.047305 0.506393 0.455725
v -1.194853 0.506393 0.191815
v -1.194853 0.342288 0.191815
v -1.194853 0.506393 0.191815
v 1.039148 0.506393 0.134993
v -1.194853 0.342288 0.191815
v 1.030991 0.342287 -0.185736
v -1.203010 0.342288 -0.128917
v 1.030991 0.342287 -0.185736
v -1.194853 0.342288 0.191815
v 1.039148 0.342287 0.134993
v -1.203010 0.342288 -0.128917
v -1.203010 0.178182 -0.128917
v -1.203010 0.342288 -0.128917
v 1.030991 0.342287 -0.185736
v -1.203010 0.178182 -0.128917
v 1.022833 0.178181 -0.506468
v -1.211167 0.178182 -0.449647
v 1.022833 0.178181 -0.506468
v -1.203010 0.178182 -0.128917
v 1.030991 0.178182 -0.185736
v -1.211167 0.178182 -0.449647
v -1.211167 0.014076 -0.449647
v -1.211167 0.178182 -0.449647
v 1.022833 0.178181 -0.506468
v -1.211167 0.014076 -0.449647
v 1.055462 0.014076 0.776454
v -1.178539 0.014076 0.833275
v 1.055462 0.014076 0.776454
v -1.211167 0.014076 -0.449647
v 1.022833 0.014076 -0.506468
v -1.178539 0.014076 0.833275
v 1.055464 0.670499 0.776454
v -1.178538 0.670499 0.833275
v 1.055464 0.670499 0.776454
v -1.178539 0.014076 0.833275
vt 5.435854 1.144753
vt 5.443757 1.846542
vt 5.435854 1.144753
vt 5.443757 1.846542
vt -0.441245 1.852031
vt -0.441245 1.852031
vt -0.454016 1.159727
vt -0.454016 1.159727
vt 5.387008 1.174570
vt 5.394241 1.816895
vt -0.392611 1.822292
vt -0.404287 1.189295
vt 5.435854 1.144753
vt 5.443757 1.846542
vt 5.435854 1.144753
vt 5.443757 1.846542
vt -0.441245 1.852031
vt -0.441245 1.852031
vt -0.454016 1.159727
vt -0.454016 1.159727
vt 5.387008 1.174570
vt 5.394241 1.816895
vt -0.392611 1.822292
vt -0.404287 1.189295
vt 5.435854 1.144753
vt 5.443757 1.846542
vt 5.435854 1.144753
vt 5.443757 1.846542
vt -0.441245 1.852031
vt -0.441245 1.852031
vt -0.454016 1.159727
vt -0.454016 1.159727
vt 5.387008 1.174570
vt 5.394241 1.816895
vt -0.392611 1.822292
vt -0.404287 1.189295
vt 5.435854 1.144753
vt 5.443757 1.846542
vt 5.435854 1.144753
vt 5.443757 1.846542
vt -0.441245 1.852031
vt -0.441245 1.852031
vt -0.454016 1.159727
vt -0.454016 1.159727
vt 5.387008 1.174570
vt 5.394241 1.816895
vt -0.392611 1.822292
vt -0.404287 1.189295
vt 0.000000 0.000000
vt 0.000000 1.000000
vt 1.000000 1.000000
vt 1.000000 1.000000
vt 1.000000 0.000000
vt 0.000000 0.000000
vt 1.000000 1.000000
vt 1.000000 0.000000
vt 0.000000 0.000000
vt 0.000000 1.000000
vt 0.000000 0.000000
vt 0.000000 1.000000
vt 1.000000 1.000000
vt 1.000000 1.000000
vt 1.000000 0.000000
vt 0.000000 0.000000
vt 1.000000 0.000000
vt 0.000000 0.000000
vt 1.000000 1.000000
vt 1.000000 0.000000
vt 0.000000 0.000000
vt 0.000000 0.000000
vt 0.000000 1.000000
vt 1.000000 1.000000
vt 1.000000 1.000000
vt 1.000000 0.000000
vt 0.000000 0.000000
vt 1.000000 0.000000
vt 0.000000 0.000000
vt 1.000000 1.000000
vt 1.000000 0.000000
vt 0.000000 0.000000
vt 0.000000 0.000000
vt 0.000000 1.000000
vt 1.000000 1.000000
vt 1.000000 1.000000
vt 1.000000 0.000000
vt 0.000000 0.000000
vt 0.000000 1.000000
vt 0.000000 0.000000
vt 1.000000 1.000000
vt 1.000000 0.000000
vt 0.000000 0.000000
vt 1.000000 1.000000
vt 1.000000 0.000000
vt 0.000000 1.000000
vt 1.000000 1.000000
vt 0.000000 0.000000
vt 1.000000 0.000000
vt 0.000000 0.000000
vt 0.000000 1.000000
vt 0.000000 0.000000
vt 1.000000 1.000000
vt 1.000000 0.000000
vt 1.000000 1.000000
vt 0.000000 0.000000
vt 0.000000 1.000000
vt 0.000000 0.000000
vt 1.000000 0.000000
vt 0.000000 0.000000
vt 0.000000 1.000000
vt 0.000000 0.000000
vt 1.000000 1.000000
vt 1.000000 0.000000
vt 1.000000 1.000000
vt 0.000000 0.000000
vt 0.000000 1.000000
vt 0.000000 0.000000
vt 1.000000 0.000000
vt 0.000000 0.000000
vt 0.000000 1.000000
vt 0.000000 0.000000
vt 1.000000 1.000000
vt 1.000000 0.000000
vt 1.000000 1.000000
vt 0.000000 0.000000
vt 0.000000 1.000000
vt 0.000000 0.000000
vt 1.000000 0.000000
vt 0.000000 0.000000
vt 0.000000 1.000000
vt 0.000000 0.000000
vt 1.000000 1.000000
vt 1.000000 0.000000
vt 1.000000 1.000000
vt 0.000000 0.000000
vt 0.000000 1.000000
vt 0.000000 0.000000
vt 1.000000 1.000000
vt 1.000000 0.000000
vt 1.000000 1.000000
vt 0.000000 0.000000
vn 0.5919 -0.5775 0.5622
vn 0.5618 -0.5771 -0.5927
vn 0.6468 0.4616 0.6070
vn 0.6140 0.4617 -0.6401
vn -0.5908 -0.5779 -0.5630
vn -0.6459 0.4615 -0.6081
vn -0.5641 -0.5769 0.5907
vn -0.6164 0.4618 0.6378
vn 0.1874 0.9561 0.2252
vn 0.1750 0.9562 -0.2344
vn -0.1875 0.9559 -0.2257
vn -0.1757 0.9563 0.2336
vn 0.6140 0.4618 -0.6401
vn -0.1875 0.9559 -0.2258
vn 0.6468 0.4617 0.6070
vn -0.2881 0.9575 0.0073
vn -0.9997 0.0000 0.0254
vn 0.8391 0.0000 -0.5439
vn 0.9997 0.0000 -0.0254
vn 0.3688 0.0000 0.9295
vn 0.5519 0.0000 -0.8339
vn 0.0000 1.0000 0.0000
vn -0.0254 0.0000 -0.9997
vn 0.0000 -1.0000 0.0000
vn 0.0254 0.0000 0.9997
s 1
f 1/1/1 2/2/2 3/3/3
f 2/2/2 4/4/4 3/3/3
f 2/2/2 5/5/5 4/4/4
f 5/5/5 6/6/6 4/4/4
f 5/5/5 7/7/7 6/6/6
f 7/7/7 8/8/8 6/6/6
f 7/7/7 1/1/1 8/8/8
f 1/1/1 3/3/3 8/8/8
f 3/3/3 4/4/4 9/9/9
f 4/4/4 10/10/10 9/9/9
f 4/4/4 6/6/6 10/10/10
f 6/6/6 11/11/11 10/10/10
f 6/6/6 8/8/8 11/11/11
f 8/8/8 12/12/12 11/11/11
f 8/8/8 3/3/3 12/12/12
f 3/3/3 9/9/9 12/12/12
f 11/11/11 12/12/12 9/9/9
f 10/10/10 11/11/11 9/9/9
f 5/5/5 1/1/1 7/7/7
f 2/2/2 1/1/1 5/5/5
f 13/13/1 14/14/2 15/15/3
f 14/14/2 16/16/13 15/15/3
f 14/14/2 17/17/5 16/16/13
f 17/17/5 18/18/6 16/16/13
f 17/17/5 19/19/7 18/18/6
f 19/19/7 20/20/8 18/18/6
f 19/19/7 13/13/1 20/20/8
f 13/13/1 15/15/3 20/20/8
f 15/15/3 16/16/13 21/21/9
f 16/16/13 22/22/10 21/21/9
f 16/16/13 18/18/6 22/22/10
f 18/18/6 23/23/14 22/22/10
f 18/18/6 20/20/8 23/23/14
f 20/20/8 24/24/12 23/23/14
f 20/20/8 15/15/3 24/24/12
f 15/15/3 21/21/9 24/24/12
f 23/23/14 24/24/12 21/21/9
f 22/22/10 23/23/14 21/21/9
f 17/17/5 13/13/1 19/19/7
f 14/14/2 13/13/1 17/17/5
f 25/25/1 26/26/2 27/27/3
f 26/26/2 28/28/13 27/27/3
f 26/26/2 29/29/5 28/28/13
f 29/29/5 30/30/6 28/28/13
f 29/29/5 31/31/7 30/30/6
f 31/31/7 32/32/8 30/30/6
f 31/31/7 25/25/1 32/32/8
f 25/25/1 27/27/3 32/32/8
f 27/27/3 28/28/13 33/33/9
f 28/28/13 34/34/10 33/33/9
f 28/28/13 30/30/6 34/34/10
f 30/30/6 35/35/11 34/34/10
f 30/30/6 32/32/8 35/35/11
f 32/32/8 36/36/12 35/35/11
f 32/32/8 27/27/3 36/36/12
f 27/27/3 33/33/9 36/36/12
f 35/35/11 36/36/12 33/33/9
f 34/34/10 35/35/11 33/33/9
f 29/29/5 25/25/1 31/31/7
f 26/26/2 25/25/1 29/29/5
f 37/37/1 38/38/2 39/39/15
f 38/38/2 40/40/4 39/39/15
f 38/38/2 41/41/5 40/40/4
f 41/41/5 42/42/6 40/40/4
f 41/41/5 43/43/7 42/42/6
f 43/43/7 44/44/8 42/42/6
f 43/43/7 37/37/1 44/44/8
f 37/37/1 39/39/15 44/44/8
f 39/39/15 40/40/4 45/45/9
f 40/40/4 46/46/10 45/45/9
f 40/40/4 42/42/6 46/46/10
f 42/42/6 47/47/14 46/46/10
f 42/42/6 44/44/8 47/47/14
f 44/44/8 48/48/12 47/47/14
f 44/44/8 39/39/15 48/48/12
f 39/39/15 45/45/9 48/48/12
f 47/47/14 48/48/12 45/45/9
f 46/46/10 47/47/14 45/45/9
f 41/41/5 37/37/1 43/43/7
f 38/38/2 37/37/1 41/41/5
f 49/49/16 50/50/17 51/51/17
f 52/52/18 53/53/19 54/54/19
f 55/55/17 56/56/17 57/57/17
f 58/58/20 52/52/18 54/54/19
f 59/59/17 60/60/17 61/61/17
f 62/62/21 63/63/19 64/64/19
f 55/55/17 65/65/17 66/66/17
f 67/67/19 68/68/19 69/69/19
f 70/70/17 71/71/17 72/72/17
f 73/73/21 74/74/19 75/75/19
f 55/55/17 76/76/17 77/77/17
f 78/78/19 79/79/19 80/80/19
f 81/81/17 82/82/17 83/83/17
f 84/84/21 85/85/19 86/86/19
f 87/87/17 72/72/17 88/88/17
f 89/89/19 90/90/19 91/91/19
f 49/49/16 92/92/22 93/93/22
f 49/49/16 94/94/22 95/95/22
f 96/96/23 52/52/18 97/97/23
f 52/52/18 98/98/23 99/99/23
f 100/100/22 101/101/22 102/102/22
f 103/103/22 104/104/22 105/105/22
f 106/106/23 62/62/21 107/107/23
f 62/62/21 108/108/23 109/109/23
f 110/110/22 111/111/22 112/112/22
f 113/113/22 114/114/22 115/115/22
f 116/116/23 73/73/21 117/117/23
f 73/73/21 118/118/23 119/119/23
f 120/120/22 121/121/22 122/122/22
f 123/123/22 124/124/22 125/125/22
f 126/126/23 84/84/21 127/127/23
f 84/84/21 128/128/23 129/129/23
f 130/130/24 131/131/24 132/132/24
f 133/133/24 134/134/24 135/135/24
f 136/136/25 137/137/25 138/138/25
f 139/139/25 140/140/25 58/58/20
