# Blender v2.79 (sub 0) OBJ File: ''
# www.blender.org
o Circle_Circle.002
v -4.743136 0.656737 0.575923
v 4.743136 -0.000000 0.575919
v 4.743136 0.656737 0.575919
v -1.143445 0.000001 -4.639133
v 1.143442 0.656738 -4.639134
v 1.143442 0.000001 -4.639134
v -3.168383 0.000001 -3.576364
v -1.143445 0.656738 -4.639133
v -4.467483 0.000000 -1.694292
v -3.168383 0.656738 -3.576364
v -4.743136 -0.000000 0.575923
v -4.467483 0.656737 -1.694292
v 4.467482 0.000000 -1.694294
v 3.168381 0.000001 -3.576365
v 4.467482 0.656737 -1.694294
v 3.168381 0.656738 -3.576365
vt 0.894077 1.000000
vt 0.841116 0.000000
vt 0.894077 0.000000
vt 0.894077 0.591479
vt 0.947039 0.804938
vt 0.894077 0.804938
vt 0.894077 0.350405
vt 0.947039 0.591479
vt 0.894077 0.136945
vt 0.947039 0.350405
vt 0.894077 0.000000
vt 0.947039 0.136945
vt 0.420558 0.620537
vt 0.183077 0.970942
vt 0.000000 0.000000
vt 1.000000 0.234068
vt 0.947039 0.000000
vt 1.000000 0.000000
vt 0.755411 0.833997
vt 0.420558 1.000000
vt 0.603635 0.029058
vt 1.000000 0.468136
vt 0.947039 0.234068
vt 1.000000 0.648582
vt 0.947039 0.468136
vt 0.841116 1.000000
vt 0.947039 0.000000
vt 0.183077 0.029058
vt 0.334853 0.166003
vt 0.420558 0.379463
vt 0.334853 0.833996
vt 0.000000 1.000000
vt 0.603635 0.970942
vt 0.420558 0.000000
vt 0.755411 0.166004
vt 0.841116 0.379463
vt 0.841116 0.620537
vt 0.947039 0.648582
vn 0.0000 -0.0000 1.0000
vn -0.0000 0.0000 -1.0000
vn -0.4647 0.0000 -0.8855
vn -0.8230 0.0000 -0.5681
vn -0.9927 0.0000 -0.1205
vn 0.0000 1.0000 0.0000
vn 0.9927 0.0000 -0.1205
vn 0.0000 -1.0000 -0.0000
vn 0.8230 0.0000 -0.5681
vn 0.4647 0.0000 -0.8855
s 1
f 1/1/1 2/2/1 3/3/1
f 4/4/2 5/5/2 6/6/2
f 7/7/3 8/8/3 4/4/3
f 9/9/4 10/10/4 7/7/4
f 11/11/5 12/12/5 9/9/5
f 8/13/6 12/14/6 3/15/6
f 13/16/7 3/17/7 2/18/7
f 14/19/8 2/20/8 9/21/8
f 14/22/9 15/23/9 13/16/9
f 6/24/10 16/25/10 14/22/10
f 1/1/1 11/26/1 2/2/1
f 4/4/2 8/8/2 5/5/2
f 7/7/3 10/10/3 8/8/3
f 9/9/4 12/12/4 10/10/4
f 11/11/5 1/27/5 12/12/5
f 3/15/6 15/28/6 16/29/6
f 16/29/6 5/30/6 8/13/6
f 8/13/6 10/31/6 12/14/6
f 12/14/6 1/32/6 3/15/6
f 3/15/6 16/29/6 8/13/6
f 13/16/7 15/23/7 3/17/7
f 14/19/8 13/33/8 2/20/8
f 2/20/8 11/34/8 9/21/8
f 9/21/8 7/35/8 4/36/8
f 4/36/8 6/37/8 9/21/8
f 6/37/8 14/19/8 9/21/8
f 14/22/9 16/25/9 15/23/9
f 6/24/10 5/38/10 16/25/10
