# Blender v2.79 (sub 0) OBJ File: 'waltherp38_muzzle.blend'
# www.blender.org
o TextureAtlas_mergedObject
v -0.285390 0.142770 -0.365508
v 0.285390 0.142770 -0.365508
v -0.285390 0.142770 -0.936289
v 0.285390 0.142770 -0.936289
v 0.000000 0.428161 -0.365508
v 0.000000 -0.142620 -0.365508
v 0.000000 0.428161 -0.936289
v 0.000000 -0.142620 -0.936289
v -0.285390 0.428161 -0.352522
v -0.285390 -0.142620 -0.352522
v 0.285390 0.428161 -0.352522
v 0.285390 -0.142620 -0.352522
vt 0.000000 0.500000
vt 0.500000 1.000000
vt 0.000000 1.000000
vt 0.500000 0.500000
vt 1.000000 0.000000
vt 0.500000 0.000000
vt 0.500000 0.000000
vt 0.000000 0.500000
vt 0.000000 0.000000
vt 0.500000 0.500000
vt 1.000000 0.500000
vt 0.500000 0.500000
vn 0.0000 1.0000 0.0000
vn -1.0000 0.0000 0.0000
vn -0.0000 0.0000 1.0000
s off
f 2/1/1 3/2/1 1/3/1
f 7/4/2 6/5/2 5/6/2
f 9/7/3 12/8/3 11/9/3
f 2/1/1 4/10/1 3/2/1
f 7/4/2 8/11/2 6/5/2
f 9/7/3 10/12/3 12/8/3
